<svg xmlns="http://www.w3.org/2000/svg" xmlns:xlink="http://www.w3.org/1999/xlink" width="28" height="28" viewBox="0 0 28 28"><defs><style>.a{fill:url(#a);}.b{fill:url(#b);}.c{fill:url(#c);}.d{fill:url(#d);}.e{fill:#fff;}</style><linearGradient id="a" x1="0.332" y1="0.141" x2="0.585" y2="0.682" gradientUnits="objectBoundingBox"><stop offset="0" stop-color="#3457a0"/><stop offset="1" stop-color="#3b5998"/></linearGradient><linearGradient id="b" x1="0.714" y1="0.647" x2="-0.271" y2="-0.03" gradientUnits="objectBoundingBox"><stop offset="0" stop-color="#3457a0" stop-opacity="0"/><stop offset="1" stop-color="#1f3f77"/></linearGradient><linearGradient id="c" x1="0.5" y1="0.177" x2="0.5" y2="0.855" xlink:href="#b"/><linearGradient id="d" x1="1.26" y1="0.791" x2="0.043" y2="0.371" gradientUnits="objectBoundingBox"><stop offset="0" stop-color="#3457a0" stop-opacity="0"/><stop offset="0.325" stop-color="#2a4c8d" stop-opacity="0.325"/><stop offset="0.705" stop-color="#22427d" stop-opacity="0.706"/><stop offset="1" stop-color="#1f3f77"/></linearGradient></defs><path class="a" d="M22.992,27.521a84.572,84.572,0,0,1-17.984,0A5.1,5.1,0,0,1,.479,22.992a84.57,84.57,0,0,1,0-17.983A5.1,5.1,0,0,1,5.008.479a84.57,84.57,0,0,1,17.983,0,5.1,5.1,0,0,1,4.529,4.529,84.57,84.57,0,0,1,0,17.983A5.1,5.1,0,0,1,22.992,27.521Zm0,0"/><path class="b" d="M53.255,33.278a4.524,4.524,0,0,0-4.019-4.019,75.074,75.074,0,0,0-15.958,0,4.525,4.525,0,0,0-4.019,4.019,75.072,75.072,0,0,0,0,15.958,4.524,4.524,0,0,0,4.019,4.019,75.044,75.044,0,0,0,15.958,0,4.524,4.524,0,0,0,4.019-4.019A75.044,75.044,0,0,0,53.255,33.278Zm0,0" transform="translate(-27.257 -27.257)"/><path class="c" d="M7.672,409.8q.029.29.06.581a5.1,5.1,0,0,0,4.529,4.529,84.57,84.57,0,0,0,17.983,0,5.1,5.1,0,0,0,4.529-4.529q.031-.29.06-.581Zm0,0" transform="translate(-7.252 -387.393)"/><path class="d" d="M226.771,85.27a4.417,4.417,0,0,0-4.417,4.417v3.3h-2.377v4.085l2.377,2.129v9.4a84.75,84.75,0,0,0,8.585-.478,5.1,5.1,0,0,0,4.529-4.529,84.556,84.556,0,0,0,.365-13.382l-4.946-4.946Zm0,0" transform="translate(-207.947 -80.606)"/><path class="e" d="M222.354,108.605q2.447-.012,4.893-.166V97.071h3.247l.392-4.085h-3.639V90.392a1.037,1.037,0,0,1,1.037-1.037h2.6V85.27h-4.115a4.417,4.417,0,0,0-4.417,4.417v3.3h-2.377v4.085h2.377Zm0,0" transform="translate(-207.947 -80.606)"/></svg>