<svg xmlns="http://www.w3.org/2000/svg" xmlns:xlink="http://www.w3.org/1999/xlink" width="27.5" height="27.5" viewBox="0 0 27.5 27.5"><defs><style>.a{fill:url(#a);}.b{fill:url(#b);}.c{fill:url(#c);}.d{fill:url(#d);}.e{fill:url(#e);}.f{fill:url(#f);}.g{fill:url(#g);}.h{fill:url(#h);}.i{fill:#fff;}</style><radialGradient id="a" cx="5.637" cy="24.033" r="30.328" gradientUnits="userSpaceOnUse"><stop offset="0" stop-color="#fae100"/><stop offset="0.054" stop-color="#fadc04"/><stop offset="0.117" stop-color="#fbce0e"/><stop offset="0.183" stop-color="#fcb720"/><stop offset="0.251" stop-color="#fe9838"/><stop offset="0.305" stop-color="#ff7950"/><stop offset="0.492" stop-color="#ff1c74"/><stop offset="1" stop-color="#6c1cd1"/></radialGradient><linearGradient id="b" x1="0.369" y1="0.426" x2="-1.54" y2="-0.648" gradientUnits="objectBoundingBox"><stop offset="0" stop-color="#a1b5d8" stop-opacity="0"/><stop offset="0.309" stop-color="#90a2bd" stop-opacity="0.31"/><stop offset="0.755" stop-color="#7c8b9c" stop-opacity="0.757"/><stop offset="1" stop-color="#748290"/></linearGradient><linearGradient id="c" x1="0.5" y1="0.413" x2="0.5" y2="1.193" gradientUnits="objectBoundingBox"><stop offset="0" stop-color="#fae100" stop-opacity="0"/><stop offset="0.307" stop-color="#fca800" stop-opacity="0.306"/><stop offset="0.627" stop-color="#fe7300" stop-opacity="0.627"/><stop offset="0.868" stop-color="#ff5200" stop-opacity="0.867"/><stop offset="1" stop-color="#ff4500"/></linearGradient><linearGradient id="d" x1="0.316" y1="0.311" x2="0.012" y2="0.005" gradientUnits="objectBoundingBox"><stop offset="0" stop-color="#833ab4" stop-opacity="0"/><stop offset="1" stop-color="#833ab4"/></linearGradient><linearGradient id="e" x1="0.582" y1="0.887" x2="0.418" y2="0.113" xlink:href="#d"/><linearGradient id="f" x1="0.605" y1="0.605" x2="-0.16" y2="-0.16" xlink:href="#d"/><linearGradient id="g" x1="0.376" y1="0.332" x2="-0.072" y2="-0.063" xlink:href="#d"/><linearGradient id="h" x1="0.816" y1="0.182" x2="0.172" y2="0.835" gradientUnits="objectBoundingBox"><stop offset="0" stop-color="#833ab4"/><stop offset="0.092" stop-color="#9c3495"/><stop offset="0.293" stop-color="#dc2546"/><stop offset="0.392" stop-color="#fd1d1d"/><stop offset="0.559" stop-color="#fc6831"/><stop offset="0.689" stop-color="#fc9b40"/><stop offset="0.752" stop-color="#fcaf45"/><stop offset="0.781" stop-color="#fdb750"/><stop offset="0.866" stop-color="#fecb6a"/><stop offset="0.942" stop-color="#ffd87a"/><stop offset="1" stop-color="#ffdc80"/></linearGradient></defs><path class="a" d="M27.029,4.919A5.007,5.007,0,0,0,22.581.471a83.06,83.06,0,0,0-17.662,0A5.007,5.007,0,0,0,.471,4.919a83.06,83.06,0,0,0,0,17.662,5.007,5.007,0,0,0,4.448,4.448,83.062,83.062,0,0,0,17.663,0,5.007,5.007,0,0,0,4.448-4.448A83.06,83.06,0,0,0,27.029,4.919Zm0,0"/><path class="b" d="M52.819,33.2a4.443,4.443,0,0,0-3.947-3.947,73.734,73.734,0,0,0-15.673,0A4.444,4.444,0,0,0,29.252,33.2a73.732,73.732,0,0,0,0,15.673A4.443,4.443,0,0,0,33.2,52.819a73.7,73.7,0,0,0,15.673,0,4.443,4.443,0,0,0,3.947-3.947A73.7,73.7,0,0,0,52.819,33.2Zm0,0" transform="translate(-27.285 -27.285)"/><path class="c" d="M7.672,409.8q.028.285.059.57a5.007,5.007,0,0,0,4.448,4.448,83.06,83.06,0,0,0,17.662,0,5.007,5.007,0,0,0,4.448-4.448q.031-.285.059-.57Zm0,0" transform="translate(-7.26 -387.794)"/><path class="d" d="M117.012,114.671a83.132,83.132,0,0,0,.468-9.491l-6.286-6.286a4.5,4.5,0,0,0-3.28-1.5c-2.772-.1-5.552-.095-8.325,0a4.449,4.449,0,0,0-4.325,3.9c-.073.4-.116.808-.174,1.213v6.668c.032.216.078.431.093.649a4.848,4.848,0,0,0,1.571,3.37l6.4,6.4a83.135,83.135,0,0,0,9.413-.469A5.007,5.007,0,0,0,117.012,114.671Zm0,0" transform="translate(-89.982 -92.09)"/><path class="e" d="M146.5,142.538a5.007,5.007,0,0,1-4.448,4.448,83.18,83.18,0,0,1-9.413.469l-6.387-6.387a4.478,4.478,0,0,0,2.825,1.085c2.772.1,5.553.1,8.324,0a4.455,4.455,0,0,0,4.4-4.453c.084-2.662.084-5.33,0-7.992a4.64,4.64,0,0,0-1.115-2.944l6.282,6.282A83.281,83.281,0,0,1,146.5,142.538Zm0,0" transform="translate(-119.473 -119.957)"/><path class="f" d="M181.642,175.419a4.4,4.4,0,1,0-6.223,6.223l10.191,10.191q.809-.07,1.618-.157a5.007,5.007,0,0,0,4.448-4.448q.086-.809.157-1.618Zm0,0" transform="translate(-164.647 -164.647)"/><path class="g" d="M333.368,159.358l-8.2-8.2a1.047,1.047,0,1,0-1.467,1.467l9.522,9.522Q333.318,160.752,333.368,159.358Zm0,0" transform="translate(-305.921 -142.646)"/><path class="h" d="M95.09,102.5c.057-.4.1-.811.174-1.213a4.448,4.448,0,0,1,4.325-3.9c2.772-.1,5.553-.1,8.325,0a4.455,4.455,0,0,1,4.4,4.453q.125,3.993,0,7.992a4.454,4.454,0,0,1-4.4,4.453c-2.772.1-5.553.1-8.325,0a4.532,4.532,0,0,1-4.407-4.465c-.014-.217-.061-.432-.093-.649Zm8.645,10.3c1.268,0,2.538.038,3.805-.009a3.1,3.1,0,0,0,3.254-3.243q.086-3.709,0-7.421a3.076,3.076,0,0,0-3.254-3.239q-3.78-.08-7.563,0a3.057,3.057,0,0,0-3.249,3.192q-.1,3.756,0,7.516a3.078,3.078,0,0,0,3.249,3.2C101.228,112.839,102.482,112.8,103.735,112.8Zm0,0" transform="translate(-89.982 -92.09)"/><g transform="translate(5.107 5.227)"><path class="i" d="M95.09,102.5c.057-.4.1-.811.174-1.213a4.448,4.448,0,0,1,4.325-3.9c2.772-.1,5.553-.1,8.325,0a4.455,4.455,0,0,1,4.4,4.453q.125,3.993,0,7.992a4.454,4.454,0,0,1-4.4,4.453c-2.772.1-5.553.1-8.325,0a4.532,4.532,0,0,1-4.407-4.465c-.014-.217-.061-.432-.093-.649Zm8.645,10.3c1.268,0,2.538.038,3.805-.009a3.1,3.1,0,0,0,3.254-3.243q.086-3.709,0-7.421a3.076,3.076,0,0,0-3.254-3.239q-3.78-.08-7.563,0a3.057,3.057,0,0,0-3.249,3.192q-.1,3.756,0,7.516a3.078,3.078,0,0,0,3.249,3.2C101.228,112.839,102.482,112.8,103.735,112.8Zm0,0" transform="translate(-95.09 -97.317)"/><path class="i" d="M178.4,174a4.4,4.4,0,1,0,4.4,4.4A4.4,4.4,0,0,0,178.4,174Zm0,7.293a2.888,2.888,0,1,1,2.888-2.888A2.888,2.888,0,0,1,178.4,181.289Zm0,0" transform="translate(-169.754 -169.878)"/><path class="i" d="M325.381,151.79a1.048,1.048,0,1,1-1.048-1.048A1.048,1.048,0,0,1,325.381,151.79Zm0,0" transform="translate(-311.029 -147.873)"/></g></svg>