<svg xmlns="http://www.w3.org/2000/svg" xmlns:xlink="http://www.w3.org/1999/xlink" width="28.18" height="28.18" viewBox="0 0 28.18 28.18"><defs><style>.a{fill:url(#a);}.b{fill:url(#b);}.c{fill:url(#c);}.d{fill:url(#d);}.e{fill:#fff;}</style><linearGradient id="a" x1="0.332" y1="0.141" x2="0.585" y2="0.682" gradientUnits="objectBoundingBox"><stop offset="0" stop-color="#00c3ff"/><stop offset="1" stop-color="#00b0ed"/></linearGradient><linearGradient id="b" x1="0.738" y1="0.628" x2="-0.899" y2="-0.25" gradientUnits="objectBoundingBox"><stop offset="0" stop-color="#00b0ed" stop-opacity="0"/><stop offset="1" stop-color="#00a2ce"/></linearGradient><linearGradient id="c" x1="0.5" y1="0.27" x2="0.5" y2="0.926" xlink:href="#b"/><linearGradient id="d" x1="0.946" y1="0.922" x2="0.342" y2="0.273" xlink:href="#b"/></defs><path class="a" d="M23.14,27.7a85.117,85.117,0,0,1-18.1,0A5.131,5.131,0,0,1,.482,23.139a85.114,85.114,0,0,1,0-18.1A5.131,5.131,0,0,1,5.04.482a85.115,85.115,0,0,1,18.1,0A5.131,5.131,0,0,1,27.7,5.04a85.114,85.114,0,0,1,0,18.1A5.131,5.131,0,0,1,23.14,27.7Zm0,0" transform="translate(0 0)"/><path class="b" d="M53.412,33.307a4.553,4.553,0,0,0-4.045-4.045,75.558,75.558,0,0,0-16.061,0,4.554,4.554,0,0,0-4.045,4.045,75.555,75.555,0,0,0,0,16.06,4.553,4.553,0,0,0,4.045,4.045,75.527,75.527,0,0,0,16.061,0,4.553,4.553,0,0,0,4.045-4.045A75.527,75.527,0,0,0,53.412,33.307Zm0,0" transform="translate(-27.247 -27.247)"/><path class="c" d="M7.672,409.8q.029.292.06.584a5.131,5.131,0,0,0,4.558,4.558,85.118,85.118,0,0,0,18.1,0,5.131,5.131,0,0,0,4.558-4.558q.031-.292.06-.584Zm0,0" transform="translate(-7.25 -387.249)"/><path class="d" d="M120.138,132.822l-5.849-5.849a6.98,6.98,0,0,1-1.668.7,4.773,4.773,0,0,1-.588.121,3.632,3.632,0,0,0-6.233,2.537c0,.072,0,.144.007.215a3.505,3.505,0,0,0,.066.511,9.95,9.95,0,0,1-6.155-2.461h0l-1.224-1.224a3.614,3.614,0,0,0,.675,4.409,4.028,4.028,0,0,0,.306.306l.027.029a3.559,3.559,0,0,1-1.593-.442,3.524,3.524,0,0,0,1.179,2.66l1.031,1.04a2.006,2.006,0,0,1-.9-.086,3.471,3.471,0,0,0,1.04,1.634l1.444,1.451a7.475,7.475,0,0,1-4.379.975l8.759,8.559a85.21,85.21,0,0,0,9.024-.482,5.131,5.131,0,0,0,4.558-4.558A85.248,85.248,0,0,0,120.138,132.822Zm0,0" transform="translate(-91.964 -119.722)"/><path class="e" d="M114.784,128.383a6.571,6.571,0,0,1-1.874.52l-.008-.044a3.486,3.486,0,0,0,1.382-1.887,6.98,6.98,0,0,1-1.668.7,4.815,4.815,0,0,1-.588.121,3.632,3.632,0,0,0-6.233,2.537c0,.072,0,.144.007.215a3.5,3.5,0,0,0,.066.511,10.153,10.153,0,0,1-7.38-3.686,3.592,3.592,0,0,0,1.1,4.749,3.788,3.788,0,0,1-1.686-.447,3.633,3.633,0,0,0,2.959,3.579,3.437,3.437,0,0,1-1.652.035,3.5,3.5,0,0,0,3.3,2.512,7.238,7.238,0,0,1-5.2,1.548,10.265,10.265,0,0,0,15.745-8.677q0-.106,0-.212c0-.042,0-.084,0-.126s0-.059,0-.088A6.422,6.422,0,0,0,114.784,128.383Zm0,0" transform="translate(-91.96 -119.722)"/></svg>