<svg xmlns="http://www.w3.org/2000/svg" xmlns:xlink="http://www.w3.org/1999/xlink" width="28.18" height="28.18" viewBox="0 0 28.18 28.18"><defs><style>.a{fill:url(#a);}.b{fill:url(#b);}.c{fill:url(#c);}.d,.f{fill-rule:evenodd;}.d{fill:url(#d);}.e{fill:url(#e);}.f{fill:#fff;}</style><linearGradient id="a" x1="0.227" y1="-0.025" x2="0.948" y2="1.363" gradientUnits="objectBoundingBox"><stop offset="0" stop-color="#fffcf8"/><stop offset="0.188" stop-color="#faf8f6"/><stop offset="0.404" stop-color="#eceef2"/><stop offset="0.635" stop-color="#d5dcea"/><stop offset="0.875" stop-color="#b5c4df"/><stop offset="1" stop-color="#a1b5d8"/></linearGradient><linearGradient id="b" x1="0.369" y1="0.426" x2="-1.54" y2="-0.648" gradientUnits="objectBoundingBox"><stop offset="0" stop-color="#a1b5d8" stop-opacity="0"/><stop offset="0.309" stop-color="#90a2bd" stop-opacity="0.31"/><stop offset="0.755" stop-color="#7c8b9c" stop-opacity="0.757"/><stop offset="1" stop-color="#748290"/></linearGradient><linearGradient id="c" x1="0.5" y1="0.413" x2="0.5" y2="1.193" xlink:href="#b"/><linearGradient id="d" x1="0.583" y1="0.746" x2="0.116" y2="-0.023" xlink:href="#b"/><linearGradient id="e" x1="0.5" y1="1" x2="0.5" gradientUnits="objectBoundingBox"><stop offset="0" stop-color="#20b038"/><stop offset="1" stop-color="#60d66a"/></linearGradient></defs><path class="a" d="M23.14,27.7a85.117,85.117,0,0,1-18.1,0A5.131,5.131,0,0,1,.482,23.139a85.114,85.114,0,0,1,0-18.1A5.131,5.131,0,0,1,5.04.482a85.115,85.115,0,0,1,18.1,0A5.131,5.131,0,0,1,27.7,5.04a85.114,85.114,0,0,1,0,18.1A5.131,5.131,0,0,1,23.14,27.7Zm0,0" transform="translate(0 0)"/><path class="b" d="M53.412,33.307a4.553,4.553,0,0,0-4.045-4.045,75.558,75.558,0,0,0-16.061,0,4.554,4.554,0,0,0-4.045,4.045,75.555,75.555,0,0,0,0,16.06,4.553,4.553,0,0,0,4.045,4.045,75.527,75.527,0,0,0,16.061,0,4.553,4.553,0,0,0,4.045-4.045A75.527,75.527,0,0,0,53.412,33.307Zm0,0" transform="translate(-27.247 -27.247)"/><path class="c" d="M7.672,409.8q.029.292.06.584a5.131,5.131,0,0,0,4.558,4.558,85.118,85.118,0,0,0,18.1,0,5.131,5.131,0,0,0,4.558-4.558q.031-.292.06-.584Zm0,0" transform="translate(-7.25 -387.249)"/><path class="d" d="M112.88,101.752a8.376,8.376,0,0,0-6.07-2.428A8.428,8.428,0,0,0,99.473,112.2l-1.45,4.485,5.288,5.288a85.119,85.119,0,0,0,12.457-.414A5.131,5.131,0,0,0,120.326,117q.391-3.663.465-7.333Zm0,0" transform="translate(-92.628 -93.857)"/><path class="e" d="M103.5,119.675l1.186-4.33a8.359,8.359,0,1,1,7.243,4.185h0a8.356,8.356,0,0,1-3.994-1.017Zm0,0" transform="translate(-97.8 -97.154)"/><g transform="translate(5.395 5.356)"><path class="f" d="M112.88,99.855A8.659,8.659,0,0,0,99.252,110.3l-1.229,4.485,4.59-1.2a8.654,8.654,0,0,0,4.138,1.054h0a8.659,8.659,0,0,0,6.125-14.779Zm-6.125,13.318h0a7.189,7.189,0,0,1-3.663-1l-.263-.156-2.724.714.727-2.655-.171-.272a7.2,7.2,0,1,1,6.1,3.372Zm0,0" transform="translate(-98.023 -97.316)"/><path class="f" d="M185.07,187.755c-.216-.108-1.28-.632-1.478-.7s-.343-.108-.487.109-.559.7-.685.848-.252.163-.469.054a5.921,5.921,0,0,1-1.74-1.074,6.52,6.52,0,0,1-1.2-1.5c-.126-.216-.014-.334.1-.442s.216-.252.324-.379a1.486,1.486,0,0,0,.216-.361.4.4,0,0,0-.018-.379c-.054-.108-.475-1.178-.667-1.606-.162-.36-.333-.367-.487-.374-.126-.005-.27-.005-.415-.005a.8.8,0,0,0-.577.271,2.425,2.425,0,0,0-.757,1.8,4.21,4.21,0,0,0,.883,2.237,8.884,8.884,0,0,0,3.7,3.266c1.827.721,2.2.577,2.6.541a2.185,2.185,0,0,0,1.46-1.028,1.81,1.81,0,0,0,.126-1.029C185.43,187.918,185.286,187.863,185.07,187.755Zm0,0" transform="translate(-172.391 -177.287)"/></g></svg>